#!OML:ASF H:\Pregnant\Project 1\Capture day 1\Session 1\femalepreg.ASF
:FULLY-SPECIFIED
:DEGREES
1316
root 6.92388 15.2436 30.8791 -4.10298 263.786 -338.949
lowerback -14.7548 2.27575 5.50426
upperback -3.87243 2.05752 -1.15458
thorax 4.39529 0.974662 -3.96211
lowerneck -12.5539 5.70088 9.90517
upperneck 16.7673 5.53862 0.399262
head 7.53552 3.25504 -0.909325
rclavicle 2.3792e-014 -1.96797e-014
rhumerus -28.7438 -2.92244 -86.3693
rradius 27.0854
rwrist -1.6563
rhand -17.2838 -12.7273
rfingers 7.12502
rthumb 8.96149 -42.517
lclavicle 2.3792e-014 -1.96797e-014
lhumerus -31.7575 -7.08089 77.6606
lradius 33.836
lwrist 45.1371
lhand -27.296 -7.60153
lfingers 7.12502
lthumb -0.706009 22.377
rfemur -24.4526 21.941 26.3812
rtibia 34.9072
rfoot -18.1472 -0.0116553
rtoes 4.73417
lfemur -50.6077 -16.9855 -4.44657
ltibia 23.4306
lfoot -9.51708 1.34278
ltoes -27.0328
1317
root 6.85068 15.2392 30.8959 -3.23882 263.378 -339.77
lowerback -14.8121 2.2162 5.38081
upperback -3.88479 1.98868 -1.10204
thorax 4.40021 0.938342 -3.84841
lowerneck -12.5065 5.79424 9.94999
upperneck 16.8033 5.66228 0.386575
head 7.54726 3.31601 -0.907493
rclavicle -1.66234e-014 -2.84262e-014
rhumerus -28.8444 -3.04076 -86.3075
rradius 26.9917
rwrist -1.54642
rhand -17.1043 -12.5663
rfingers 7.12502
rthumb 9.13467 -42.3485
lclavicle -1.66234e-014 -2.84262e-014
lhumerus -31.6871 -7.08521 77.7144
lradius 33.8017
lwrist 45.2217
lhand -27.3342 -7.60342
lfingers 7.12502
lthumb -0.742899 22.375
rfemur -24.1877 22.0836 26.3717
rtibia 34.8573
rfoot -18.2319 0.211528
rtoes 4.75808
lfemur -50.6572 -16.9639 -4.36538
ltibia 23.2028
lfoot -9.55833 0.898034
ltoes -27.0717
1318
root 6.77688 15.2343 30.9129 -2.51304 262.954 -340.442
lowerback -14.8876 2.16166 5.26201
upperback -3.89679 1.92451 -1.04752
thorax 4.41624 0.904534 -3.73412
lowerneck -12.467 5.88752 10.0108
upperneck 16.842 5.78458 0.3587
head 7.56225 3.37605 -0.913001
rclavicle -4.34841e-016 -2.127e-014
rhumerus -28.9462 -3.16028 -86.2177
rradius 26.8954
rwrist -1.40181
rhand -16.8819 -12.3622
rfingers 7.12502
rthumb 9.34929 -42.1349
lclavicle -4.34841e-016 -2.127e-014
lhumerus -31.6414 -7.1596 77.8007
lradius 33.7868
lwrist 45.3365
lhand -27.3829 -7.60414
lfingers 7.12502
lthumb -0.789915 22.3741
rfemur -23.9405 22.2669 26.3641
rtibia 34.8275
rfoot -18.3155 0.393329
rtoes 4.76952
lfemur -50.671 -16.881 -4.34408
ltibia 23.0456
lfoot -9.59662 0.356694
ltoes -27.125
1319
root 6.70203 15.2288 30.9305 -1.87725 262.505 -341.013
lowerback -14.9833 2.1218 5.15872
upperback -3.90869 1.87646 -0.999523
thorax 4.44601 0.879017 -3.63221
lowerneck -12.4414 5.97851 10.0989
upperneck 16.8873 5.90078 0.308533
head 7.58336 3.43306 -0.930223
rclavicle 1.61513e-014 -1.05356e-014
rhumerus -29.0585 -3.29216 -86.1209
rradius 26.8176
rwrist -1.26385
rhand -16.6729 -12.2044
rfingers 7.12502
rthumb 9.55096 -41.9679
lclavicle 1.61513e-014 -1.05356e-014
lhumerus -31.5994 -7.25156 77.891
lradius 33.7604
lwrist 45.4176
lhand -27.4019 -7.59745
lfingers 7.12502
lthumb -0.808295 22.3808
rfemur -23.7086 22.4887 26.3549
rtibia 34.8118
rfoot -18.3954 0.54114
rtoes 4.74071
lfemur -50.6572 -16.7933 -4.33501
ltibia 22.9635
lfoot -9.62243 -0.214122
ltoes -27.2572
1320
root 6.62375 15.2222 30.9497 -1.37329 262.024 -341.48
lowerback -15.0833 2.10311 5.09629
upperback -3.90833 1.85115 -0.964365
thorax 4.49509 0.866012 -3.56261
lowerneck -12.425 6.06204 10.2208
upperneck 16.9385 6.0025 0.238101
head 7.60939 3.48355 -0.960577
rclavicle -2.4376e-014 -4.37326e-015
rhumerus -29.1977 -3.45599 -86.0258
rradius 26.7663
rwrist -1.14304
rhand -16.5161 -12.1218
rfingers 7.12502
rthumb 9.70219 -41.8784
lclavicle -2.4376e-014 -4.37326e-015
lhumerus -31.5775 -7.40052 77.9948
lradius 33.7432
lwrist 45.4954
lhand -27.4129 -7.57305
lfingers 7.12502
lthumb -0.818918 22.4051
rfemur -23.4386 22.7053 26.3591
rtibia 34.8036
rfoot -18.4881 0.701858
rtoes 4.72199
lfemur -50.5874 -16.8279 -4.26406
ltibia 22.9564
lfoot -9.61852 -0.696218
ltoes -27.4879
1321
root 6.5447 15.2147 30.9693 -0.992949 261.527 -341.815
lowerback -15.1915 2.0953 5.0469
upperback -3.91387 1.83749 -0.92904
thorax 4.54392 0.85848 -3.49795
lowerneck -12.4163 6.13791 10.3476
upperneck 16.9946 6.09246 0.163876
head 7.6383 3.5285 -0.993947
rclavicle -2.59911e-014 -1.21259e-014
rhumerus -29.3689 -3.62152 -85.9376
rradius 26.7482
rwrist -1.08062
rhand -16.4213 -12.1379
rfingers 7.12502
rthumb 9.79371 -41.8902
lclavicle -2.59911e-014 -1.21259e-014
lhumerus -31.5845 -7.60473 78.1231
lradius 33.7418
lwrist 45.5821
lhand -27.4076 -7.52918
lfingers 7.12502
lthumb -0.813802 22.449
rfemur -23.1795 22.915 26.3745
rtibia 34.8008
rfoot -18.5788 0.873136
rtoes 4.7166
lfemur -50.5001 -16.8883 -4.17453
ltibia 23.0244
lfoot -9.57804 -1.2242
ltoes -27.7461
1322
root 6.4647 15.206 30.9894 -0.720467 261.023 -342.051
lowerback -15.2912 2.09233 5.00692
upperback -3.92069 1.82922 -0.891702
thorax 4.58753 0.853495 -3.43563
lowerneck -12.4125 6.20767 10.4791
upperneck 17.0547 6.1738 0.0828256
head 7.66958 3.56911 -1.03105
rclavicle -1.36167e-014 4.57205e-015
rhumerus -29.571 -3.79009 -85.8448
rradius 26.7526
rwrist -1.04242
rhand -16.356 -12.2149
rfingers 7.12502
rthumb 9.85673 -41.9642
lclavicle -1.36167e-014 4.57205e-015
lhumerus -31.6189 -7.83637 78.2725
lradius 33.7503
lwrist 45.6589
lhand -27.3896 -7.46924
lfingers 7.12502
lthumb -0.796334 22.509
rfemur -22.9094 23.1031 26.4038
rtibia 34.8038
rfoot -18.672 1.06089
rtoes 4.71153
lfemur -50.383 -17.0022 -4.06009
ltibia 23.1631
lfoot -9.47959 -1.80646
ltoes -27.957
1323
root 6.3831 15.1967 31.0089 -0.583456 260.503 -342.186
lowerback -15.366 2.0968 4.97291
upperback -3.92063 1.8317 -0.852397
thorax 4.62613 0.854171 -3.37285
lowerneck -12.4079 6.26886 10.6065
upperneck 17.114 6.24195 0.0137978
head 7.69942 3.60418 -1.06506
rclavicle -5.08143e-015 7.55382e-015
rhumerus -29.7985 -3.94183 -85.7459
rradius 26.7738
rwrist -1.04501
rhand -16.3 -12.3091
rfingers 7.12502
rthumb 9.9107 -42.0558
lclavicle -5.08143e-015 7.55382e-015
lhumerus -31.6412 -7.9774 78.4044
lradius 33.7015
lwrist 45.5965
lhand -27.3161 -7.41392
lfingers 7.12502
lthumb -0.725416 22.5646
rfemur -22.5896 23.2976 26.4643
rtibia 34.8093
rfoot -18.7692 1.24757
rtoes 4.71881
lfemur -50.1983 -17.1593 -3.93585
ltibia 23.368
lfoot -9.30738 -2.47337
ltoes -28.1096
1324
root 6.30361 15.1873 31.0282 -0.49743 260.01 -342.24
lowerback -15.4379 2.08511 4.92492
upperback -3.93964 1.81413 -0.806618
thorax 4.64043 0.8434 -3.29951
lowerneck -12.3904 6.33157 10.7403
upperneck 17.1688 6.31035 -0.0454113
head 7.72574 3.64047 -1.09719
rclavicle -1.4064e-014 -4.77083e-015
rhumerus -30.0382 -4.06637 -85.6417
rradius 26.7966
rwrist -1.0668
rhand -16.259 -12.4136
rfingers 7.12502
rthumb 9.95028 -42.1584
lclavicle -1.4064e-014 -4.77083e-015
lhumerus -31.7089 -8.16073 78.5583
lradius 33.6872
lwrist 45.5647
lhand -27.2434 -7.35374
lfingers 7.12502
lthumb -0.655144 22.625
rfemur -22.306 23.4871 26.5219
rtibia 34.8064
rfoot -18.8454 1.4161
rtoes 4.68668
lfemur -50.0384 -17.2449 -3.87125
ltibia 23.6408
lfoot -9.03871 -3.38012
ltoes -28.0694
1325
root 6.22542 15.1786 31.0477 -0.443207 259.54 -342.243
lowerback -15.5038 2.06277 4.87543
upperback -3.97315 1.78256 -0.759901
thorax 4.63474 0.824645 -3.2274
lowerneck -12.3605 6.39248 10.872
upperneck 17.218 6.3763 -0.0948021
head 7.74767 3.67617 -1.12646
rclavicle -7.14382e-015 5.96354e-015
rhumerus -30.29 -4.20913 -85.5221
rradius 26.8181
rwrist -1.06533
rhand -16.2301 -12.5218
rfingers 7.12502
rthumb 9.97821 -42.2653
lclavicle -7.14382e-015 5.96354e-015
lhumerus -31.8015 -8.32919 78.7148
lradius 33.6747
lwrist 45.5026
lhand -27.1336 -7.29089
lfingers 7.12502
lthumb -0.549119 22.6881
rfemur -22.0392 23.6572 26.5734
rtibia 34.7812
rfoot -18.9008 1.59485
rtoes 4.61826
lfemur -49.9024 -17.2629 -3.87432
ltibia 23.9778
lfoot -8.66401 -4.46862
ltoes -27.8404
1326
root 6.14501 15.1716 31.0692 -0.425962 259.061 -342.237
lowerback -15.5603 2.04604 4.85783
upperback -3.99399 1.75477 -0.718865
thorax 4.63887 0.80886 -3.17872
lowerneck -12.3215 6.4532 11.012
upperneck 17.258 6.44142 -0.143191
head 7.7654 3.71188 -1.15712
rclavicle 3.27995e-015 -2.26615e-014
rhumerus -30.5315 -4.40689 -85.3585
rradius 26.8111
rwrist -0.939283
rhand -16.1556 -12.5614
rfingers 7.12502
rthumb 10.0501 -42.3015
lclavicle 3.27995e-015 -2.26615e-014
lhumerus -31.8707 -8.37083 78.8444
lradius 33.5968
lwrist 45.2988
lhand -26.9806 -7.25271
lfingers 7.12502
lthumb -0.401364 22.7267
rfemur -21.7202 23.8758 26.6188
rtibia 34.7235
rfoot -18.9362 1.7465
rtoes 4.47888
lfemur -49.744 -17.3048 -3.90634
ltibia 24.3686
lfoot -8.20009 -5.51694
ltoes -27.5054
1327
root 6.06277 15.1667 31.0925 -0.412135 258.577 -342.246
lowerback -15.6097 2.0366 4.86414
upperback -4.00961 1.73383 -0.683921
thorax 4.64622 0.796998 -3.14877
lowerneck -12.2706 6.50599 11.1488
upperneck 17.2885 6.49872 -0.193968
head 7.77743 3.74326 -1.18943
rclavicle -1.13059e-014 1.98785e-015
rhumerus -30.7789 -4.65809 -85.1595
rradius 26.7866
rwrist -0.728266
rhand -16.0707 -12.569
rfingers 7.12502
rthumb 10.132 -42.305
lclavicle -1.13059e-014 1.98785e-015
lhumerus -31.9615 -8.42702 78.9917
lradius 33.5271
lwrist 45.0976
lhand -26.8058 -7.21704
lfingers 7.12502
lthumb -0.232517 22.7626
rfemur -21.3673 24.0917 26.652
rtibia 34.6332
rfoot -18.9529 1.91539
rtoes 4.24695
lfemur -49.5862 -17.3459 -3.98183
ltibia 24.796
lfoot -7.64928 -6.46581
ltoes -27.0608
1328
root 5.97811 15.164 31.1171 -0.366434 258.084 -342.316
lowerback -15.6493 2.03539 4.88439
upperback -4.01261 1.72335 -0.660271
thorax 4.6633 0.791284 -3.13666
lowerneck -12.2265 6.55304 11.2727
upperneck 17.3196 6.54686 -0.229064
head 7.7895 3.77086 -1.21542
rclavicle -4.68635e-014 -1.23246e-014
rhumerus -31.0239 -4.96608 -84.9272
rradius 26.7381
rwrist -0.434618
rhand -15.9764 -12.5406
rfingers 7.12502
rthumb 10.2229 -42.2722
lclavicle -4.68635e-014 -1.23246e-014
lhumerus -32.0158 -8.35157 79.1072
lradius 33.3756
lwrist 44.7495
lhand -26.5873 -7.21131
lfingers 7.12502
lthumb -0.0214756 22.7684
rfemur -20.9694 24.332 26.6695
rtibia 34.5181
rfoot -18.9439 2.07821
rtoes 3.95031
lfemur -49.4154 -17.4119 -4.08619
ltibia 25.2434
lfoot -7.03367 -7.18226
ltoes -26.5908
1329
root 5.89397 15.1637 31.1408 -0.197207 257.6 -342.483
lowerback -15.7047 2.03143 4.86464
upperback -4.02799 1.71416 -0.638483
thorax 4.67492 0.78512 -3.10348
lowerneck -12.1728 6.589 11.3712
upperneck 17.345 6.5836 -0.249485
head 7.79582 3.7926 -1.23437
rclavicle -7.7526e-015 1.47101e-014
rhumerus -31.2748 -5.29298 -84.6661
rradius 26.6718
rwrist -0.100824
rhand -15.8812 -12.4901
rfingers 7.12502
rthumb 10.3148 -42.2171
lclavicle -7.7526e-015 1.47101e-014
lhumerus -32.1069 -8.34651 79.2627
lradius 33.2584
lwrist 44.4688
lhand -26.3724 -7.20286
lfingers 7.12502
lthumb 0.186084 22.7768
rfemur -20.6102 24.6052 26.6515
rtibia 34.4033
rfoot -18.9007 2.20813
rtoes 3.57552
lfemur -49.2836 -17.4182 -4.23815
ltibia 25.6844
lfoot -6.36271 -7.71033
ltoes -26.1148
1330
root 5.81004 15.1654 31.1636 0.135486 257.125 -342.784
lowerback -15.784 2.01739 4.78435
upperback -4.05437 1.69905 -0.612985
thorax 4.68554 0.774883 -3.03296
lowerneck -12.1192 6.61895 11.434
upperneck 17.3736 6.61565 -0.250849
head 7.80082 3.81164 -1.24206
rclavicle -7.86442e-015 -8.74653e-015
rhumerus -31.5284 -5.53883 -84.4063
rradius 26.5971
rwrist 0.128128
rhand -15.8601 -12.4428
rfingers 7.12502
rthumb 10.3351 -42.1689
lclavicle -7.86442e-015 -8.74653e-015
lhumerus -32.2019 -8.29974 79.4317
lradius 33.1127
lwrist 44.1641
lhand -26.1433 -7.20007
lfingers 7.12502
lthumb 0.407297 22.7793
rfemur -20.3078 24.916 26.5833
rtibia 34.3171
rfoot -18.8289 2.30066
rtoes 3.16516
lfemur -49.1825 -17.4077 -4.40668
ltibia 26.1005
lfoot -5.67117 -7.99346
ltoes -25.6952
